<svg xmlns="http://www.w3.org/2000/svg" width="26" height="30" viewBox="0 0 26 30">
  <metadata><?xpacket begin="﻿" id="W5M0MpCehiHzreSzNTczkc9d"?>
<x:xmpmeta xmlns:x="adobe:ns:meta/" x:xmptk="Adobe XMP Core 5.6-c111 79.158325, 2015/09/10-01:10:20        ">
   <rdf:RDF xmlns:rdf="http://www.w3.org/1999/02/22-rdf-syntax-ns#">
      <rdf:Description rdf:about=""
            xmlns:xmp="http://ns.adobe.com/xap/1.0/">
         <xmp:CreatorTool>Adobe Photoshop CC 2015 (Macintosh)</xmp:CreatorTool>
      </rdf:Description>
   </rdf:RDF>
</x:xmpmeta>
                                                                                                    
                                                                                                    
                                                                                                    
                                                                                                    
                                                                                                    
                                                                                                    
                                                                                                    
                                                                                                    
                                                                                                    
                                                                                                    
                                                                                                    
                                                                                                    
                                                                                                    
                                                                                                    
                                                                                                    
                                                                                                    
                                                                                                    
                                                                                                    
                                                                                                    
                                                                                                    
                           
<?xpacket end="w"?></metadata>
<defs>
    <style>
      .cls-1 {
        fill: #fff;
        fill-rule: evenodd;
      }
    </style>
  </defs>
  <path id="ico_my_active" class="cls-1" d="M445.783,372.865h0a27.4,27.4,0,0,0-19.56,0h0A4.963,4.963,0,0,0,423,377.484v3.367a2.165,2.165,0,0,0,2.189,2.141h21.628a2.165,2.165,0,0,0,2.189-2.141v-3.367A4.963,4.963,0,0,0,445.783,372.865ZM436,353h0a6,6,0,0,0-6.06,5.93v4.48a6,6,0,0,0,6.06,5.93h0A6.3,6.3,0,0,0,442,363v-4A6,6,0,0,0,436,353Z" transform="translate(-423 -353)"/>
</svg>
