<svg xmlns="http://www.w3.org/2000/svg" width="31" height="31" viewBox="0 0 31 31">
  <metadata><?xpacket begin="﻿" id="W5M0MpCehiHzreSzNTczkc9d"?>
<x:xmpmeta xmlns:x="adobe:ns:meta/" x:xmptk="Adobe XMP Core 5.6-c111 79.158325, 2015/09/10-01:10:20        ">
   <rdf:RDF xmlns:rdf="http://www.w3.org/1999/02/22-rdf-syntax-ns#">
      <rdf:Description rdf:about=""
            xmlns:xmp="http://ns.adobe.com/xap/1.0/">
         <xmp:CreatorTool>Adobe Photoshop CC 2015 (Macintosh)</xmp:CreatorTool>
      </rdf:Description>
   </rdf:RDF>
</x:xmpmeta>
                                                                                                    
                                                                                                    
                                                                                                    
                                                                                                    
                                                                                                    
                                                                                                    
                                                                                                    
                                                                                                    
                                                                                                    
                                                                                                    
                                                                                                    
                                                                                                    
                                                                                                    
                                                                                                    
                                                                                                    
                                                                                                    
                                                                                                    
                                                                                                    
                                                                                                    
                                                                                                    
                           
<?xpacket end="w"?></metadata>
<defs>
    <style>
      .cls-1 {
        fill: #fff;
        fill-rule: evenodd;
      }
    </style>
  </defs>
  <path id="ico_new_active" class="cls-1" d="M326.5,356.424L328.952,354l1.587,3.062,3.083-1.545,0.562,3.4,3.411-.517-0.517,3.41,3.4,0.563-1.545,3.083L342,367.048l-2.422,2.455L342,371.958l-3.062,1.586,1.545,3.084-3.4.562L337.6,380.6l-3.411-.517-0.562,3.4-3.083-1.545L328.952,385l-2.455-2.422L324.042,385l-1.587-3.062-3.083,1.545-0.563-3.4-3.41.517,0.517-3.411-3.4-.562,1.545-3.084L311,371.958l2.422-2.455L311,367.048l3.062-1.587-1.545-3.083,3.4-.563-0.517-3.41,3.41,0.517,0.563-3.4,3.083,1.545L324.042,354Z" transform="translate(-311 -354)"/>
</svg>
