<svg xmlns="http://www.w3.org/2000/svg" width="30.938" height="30" viewBox="0 0 30.938 30">
  <metadata><?xpacket begin="﻿" id="W5M0MpCehiHzreSzNTczkc9d"?>
<x:xmpmeta xmlns:x="adobe:ns:meta/" x:xmptk="Adobe XMP Core 5.6-c111 79.158325, 2015/09/10-01:10:20        ">
   <rdf:RDF xmlns:rdf="http://www.w3.org/1999/02/22-rdf-syntax-ns#">
      <rdf:Description rdf:about=""
            xmlns:xmp="http://ns.adobe.com/xap/1.0/">
         <xmp:CreatorTool>Adobe Photoshop CC 2015 (Macintosh)</xmp:CreatorTool>
      </rdf:Description>
   </rdf:RDF>
</x:xmpmeta>
                                                                                                    
                                                                                                    
                                                                                                    
                                                                                                    
                                                                                                    
                                                                                                    
                                                                                                    
                                                                                                    
                                                                                                    
                                                                                                    
                                                                                                    
                                                                                                    
                                                                                                    
                                                                                                    
                                                                                                    
                                                                                                    
                                                                                                    
                                                                                                    
                                                                                                    
                                                                                                    
                           
<?xpacket end="w"?></metadata>
<defs>
    <style>
      .cls-1 {
        fill: #ccc;
        fill-rule: evenodd;
      }
    </style>
  </defs>
  <path id="ico_pop_inactive" class="cls-1" d="M392.568,310.231l-8.511-.832a1.475,1.475,0,0,1-1.218-.924l-3.04-7.552a1.447,1.447,0,0,0-2.707,0l-3.033,7.546a1.439,1.439,0,0,1-1.221.921l-8.511.813a1.511,1.511,0,0,0-.831,2.615l6.407,5.763a1.514,1.514,0,0,1,.461,1.472l-1.935,8.07a1.479,1.479,0,0,0,2.169,1.647l7.1-4.252a1.445,1.445,0,0,1,1.489,0l7.091,4.268a1.475,1.475,0,0,0,2.173-1.642l-1.893-8.075a1.511,1.511,0,0,1,.465-1.471l6.42-5.749a1.529,1.529,0,0,0-.875-2.616h0Z" transform="translate(-363 -300)"/>
</svg>
